<svg width="72" height="66" viewBox="0 0 72 66" fill="none" xmlns="http://www.w3.org/2000/svg">
<path d="M20.0946 48.449C19.9309 48.2125 19.7944 48.0123 19.6943 47.885L19.5761 47.7485V47.694C19.5317 47.7639 19.4922 47.8369 19.4578 47.9123C19.3611 48.1103 19.2761 48.3138 19.2031 48.5217C18.9525 49.1482 18.7903 49.8064 18.721 50.4775C18.6938 50.8766 18.7213 51.2776 18.8029 51.6692C18.8848 52.0786 19.0258 52.4738 19.2213 52.8427L19.385 53.1156C19.4498 53.2045 19.5196 53.2895 19.5943 53.3703C19.742 53.5438 19.9066 53.7022 20.0855 53.8433C20.4801 54.1532 20.9268 54.3904 21.4045 54.5438C21.6927 54.298 21.9091 53.9788 22.0308 53.6201C22.1525 53.2614 22.175 52.8765 22.0959 52.5061C22.0355 52.1195 21.9223 51.743 21.7593 51.3872C21.7223 51.2908 21.6798 51.1967 21.6319 51.1052C21.6319 51.0051 21.5501 50.9142 21.5046 50.8141C21.4591 50.7141 21.3317 50.4411 21.2317 50.2683C21.0406 49.9044 20.8223 49.5679 20.6222 49.2586C20.4221 48.9493 20.2583 48.6582 20.0946 48.449Z" fill="#074158"/>
<path d="M17.2019 46.9116L17.1291 46.6296C17.0432 46.2781 16.9369 45.9318 16.8107 45.5926C16.7561 45.4289 16.6924 45.2833 16.6379 45.1378C16.5833 44.9922 16.5469 44.8467 16.5014 44.7284C16.4092 44.4491 16.2998 44.1756 16.1739 43.9097C15.9731 44.143 15.7877 44.3891 15.619 44.6466C15.4386 44.9073 15.2774 45.181 15.1369 45.4653C14.7709 46.1319 14.5566 46.8712 14.5092 47.6303C14.4955 47.8271 14.4955 48.0247 14.5092 48.2216C14.5092 48.3216 14.5092 48.4217 14.5092 48.5217L14.5911 48.8037C14.7231 49.1938 14.9233 49.5572 15.1824 49.8772C15.325 50.0468 15.4868 50.1995 15.6645 50.332C15.8677 50.4761 16.084 50.601 16.3104 50.705C16.6304 50.5193 16.8972 50.2544 17.0852 49.9358C17.2732 49.6171 17.376 49.2555 17.3838 48.8856C17.4292 48.511 17.4292 48.1323 17.3838 47.7576C17.3838 47.5666 17.311 47.3756 17.2655 47.1936C17.2201 47.0117 17.2292 47.0026 17.2019 46.9116Z" fill="#074158"/>
<path d="M11.7438 45.9929C11.8986 46.1605 12.0692 46.3128 12.2533 46.4477C12.6037 46.3144 12.9189 46.1024 13.1744 45.8279C13.43 45.5535 13.619 45.224 13.7269 44.8649C13.7815 44.7011 13.827 44.5192 13.8725 44.3464C13.918 44.1735 13.9452 43.9734 13.9634 43.7915C13.986 43.428 13.986 43.0634 13.9634 42.6999C13.9869 42.3516 13.9869 42.0021 13.9634 41.6538C13.9634 41.3354 13.8816 41.0443 13.8725 40.7441C13.85 40.466 13.8105 40.1895 13.7542 39.9163C13.5092 40.1091 13.2754 40.3156 13.0538 40.5349C12.8193 40.7587 12.5975 40.9956 12.3897 41.2444C12.2696 41.3868 12.1573 41.5356 12.0531 41.6901C11.944 41.8357 11.8439 41.9994 11.7438 42.1632C11.5478 42.4964 11.3892 42.8503 11.2708 43.2184C11.2085 43.4056 11.1598 43.5972 11.1253 43.7915C11.0667 44.3608 11.1609 44.9354 11.3982 45.4562C11.4789 45.6551 11.5961 45.8371 11.7438 45.9929Z" fill="#074158"/>
<path d="M8.69644 41.2808C8.80407 41.4617 8.93228 41.6296 9.0785 41.7811C9.4567 41.7122 9.81536 41.5618 10.1295 41.3403C10.4437 41.1188 10.7059 40.8315 10.8978 40.4985C10.9524 40.4257 10.9888 40.3438 11.0343 40.271C11.0798 40.1983 11.1253 40.1073 11.1616 40.0254C11.2437 39.8567 11.3166 39.6836 11.38 39.5069C11.5035 39.1669 11.5979 38.8169 11.662 38.4608C11.7438 38.106 11.8075 37.7604 11.853 37.442C11.853 37.2782 11.853 37.1236 11.9076 36.9871C11.9622 36.8507 11.9076 36.7051 11.9076 36.5778C11.9713 36.0684 11.9803 35.7409 11.9803 35.7409C11.9803 35.7409 11.6438 35.9228 11.1707 36.2503C10.9342 36.4231 10.6613 36.6233 10.3884 36.8598C10.0988 37.0993 9.82808 37.3608 9.57882 37.6421C9.32426 37.9262 9.09306 38.2304 8.88747 38.5518C8.78524 38.717 8.69699 38.8904 8.62367 39.0703C8.55957 39.2453 8.50789 39.4247 8.46902 39.607C8.39624 39.9703 8.39624 40.3444 8.46902 40.7077C8.51519 40.9092 8.59188 41.1025 8.69644 41.2808Z" fill="#074158"/>
<path d="M9.3969 35.4953C9.64522 35.2148 9.86465 34.9101 10.0519 34.5856C10.2416 34.27 10.4029 33.9382 10.534 33.5941C10.7872 33.0047 10.9941 32.3964 11.1526 31.7747C11.2981 31.2835 11.3618 30.956 11.3618 30.956C11.3618 30.956 11.007 31.1016 10.4976 31.3745C10.2429 31.5109 9.9427 31.6838 9.64251 31.8748C9.32643 32.0846 9.02271 32.3124 8.73285 32.5571C8.11035 33.0373 7.61396 33.6617 7.28647 34.3764C7.13954 34.7086 7.06512 35.0684 7.06815 35.4316C7.09749 35.8115 7.22955 36.1762 7.45021 36.4868C7.82399 36.4579 8.18838 36.3553 8.52244 36.1852C8.85651 36.015 9.15368 35.7806 9.3969 35.4953Z" fill="#074158"/>
<path d="M8.26891 30.9288C8.40896 30.8085 8.54256 30.681 8.66917 30.5467C8.79652 30.4102 8.92387 30.2647 9.04213 30.1191C9.27128 29.8302 9.48096 29.5263 9.6698 29.2095L9.92451 28.7364C10.0064 28.5727 10.0883 28.4181 10.161 28.2634C10.3066 27.9541 10.4248 27.6721 10.5158 27.4265C10.6977 26.9262 10.8069 26.6078 10.8069 26.6078C10.4967 26.711 10.193 26.8325 9.89722 26.9717C9.26263 27.2655 8.65402 27.6124 8.07788 28.0087C7.75541 28.2363 7.45126 28.4887 7.16821 28.7637C6.89385 29.0378 6.65265 29.3431 6.44958 29.6734C6.25833 29.9747 6.13136 30.3123 6.07661 30.6649C6.03167 31.0263 6.08184 31.3932 6.22216 31.7293C6.98193 31.7353 7.71487 31.4487 8.26891 30.9288Z" fill="#074158"/>
<path d="M5.831 26.5441C6.57462 26.6277 7.3216 26.419 7.91414 25.962C8.21641 25.7476 8.49135 25.4971 8.73285 25.216C8.99186 24.9505 9.22914 24.6645 9.44239 24.3609C9.65161 24.0698 9.82445 23.7697 10.0064 23.4513C10.1883 23.1329 10.3248 22.9328 10.443 22.7144C10.5613 22.4961 10.6432 22.3142 10.7068 22.1868L10.8069 21.9958L10.5613 22.0504L9.92451 22.2505C9.26746 22.4732 8.63127 22.7532 8.0233 23.0874C7.85143 23.1787 7.68443 23.2789 7.52299 23.3876C7.35925 23.4968 7.2046 23.615 7.05905 23.7333C6.76409 23.9674 6.49838 24.2362 6.26764 24.5338C6.03596 24.8076 5.875 25.1341 5.79887 25.4846C5.72274 25.8351 5.73378 26.1989 5.831 26.5441Z" fill="#074158"/>
<path d="M8.48723 20.5403C9.10772 20.1711 9.67665 19.7215 10.1792 19.2031L10.5158 18.8302C10.631 18.7089 10.7402 18.5906 10.8433 18.4754C11.0525 18.248 11.2253 18.0387 11.3709 17.8477C11.5164 17.6567 11.6256 17.5202 11.7166 17.4111L11.8439 17.2473C11.8439 17.2473 11.4891 17.2473 10.9342 17.3747C10.2709 17.4922 9.62159 17.6781 8.99664 17.9296C8.63726 18.0699 8.29035 18.2403 7.95962 18.439C7.64519 18.6273 7.35497 18.8534 7.09543 19.1121C6.97603 19.2368 6.86654 19.3707 6.76795 19.5124C6.66643 19.6478 6.58664 19.7982 6.53144 19.9581C6.41085 20.2708 6.37629 20.61 6.43138 20.9406C7.14254 21.0625 7.87375 20.9202 8.48723 20.5403Z" fill="#074158"/>
<path d="M13.3812 13.1811C13.1174 13.1811 12.8082 13.1811 12.4716 13.2448C12.1162 13.2772 11.7635 13.335 11.4164 13.4176C11.0455 13.4941 10.6807 13.5975 10.3248 13.7269L9.79715 13.9543C9.63912 14.0375 9.48714 14.1318 9.34232 14.2363C9.0523 14.4029 8.80563 14.6355 8.62229 14.9153C8.43896 15.195 8.32412 15.514 8.2871 15.8464C8.95516 16.057 9.67574 16.028 10.3248 15.7646C10.9955 15.5298 11.6272 15.1955 12.1987 14.773C12.7062 14.4466 13.1924 14.0881 13.6541 13.6996C14.0453 13.3994 14.2636 13.1902 14.2636 13.1902C14.2636 13.1902 13.918 13.1811 13.3812 13.1811Z" fill="#074158"/>
<path d="M16.7834 9.24224C16.1357 9.18641 15.4844 9.18641 14.8367 9.24224C14.0901 9.29918 13.3568 9.47101 12.6626 9.75165C12.0361 10.0086 11.536 10.5022 11.2708 11.1253C11.5504 11.2832 11.8606 11.3793 12.1805 11.4073C12.5295 11.4436 12.882 11.4283 13.2266 11.3618C13.5797 11.2976 13.9266 11.2032 14.2636 11.0798C14.6002 10.9615 14.9186 10.816 15.2552 10.6704C15.8259 10.403 16.3789 10.0991 16.9108 9.76075C17.3565 9.51514 17.6203 9.33321 17.6203 9.33321C17.3432 9.28771 17.0638 9.25734 16.7834 9.24224Z" fill="#074158"/>
<path d="M16.274 5.61266C15.665 5.85682 15.1732 6.32583 14.9004 6.92258C15.9829 7.57754 17.5293 7.09542 18.7665 6.47684C19.3291 6.20501 19.8758 5.90129 20.4039 5.56717C20.8223 5.30337 21.0679 5.11234 21.0679 5.11234C20.1609 5.01459 19.246 5.01459 18.3389 5.11234C17.6285 5.16875 16.9315 5.33762 16.274 5.61266Z" fill="#074158"/>
<path d="M50.05 54.5801C50.5306 54.4268 50.9802 54.1897 51.3781 53.8797C51.5571 53.7386 51.7216 53.5802 51.8694 53.4067C51.941 53.3258 52.0079 53.2408 52.0695 53.152C52.1307 53.0651 52.1854 52.9739 52.2332 52.8791C52.4288 52.5102 52.5697 52.1149 52.6517 51.7056C52.7407 51.315 52.7713 50.9135 52.7426 50.5139C52.686 49.8267 52.536 49.1503 52.2969 48.5036C52.1968 48.2488 52.1059 48.0396 52.0422 47.8941L51.9239 47.6758V47.7303C51.8814 47.7795 51.8419 47.8311 51.8057 47.885C51.7056 48.0123 51.5601 48.2125 51.4054 48.449C51.2508 48.6855 51.0597 48.9766 50.8778 49.295C50.6959 49.6133 50.4594 49.9408 50.2592 50.3047C50.1683 50.4775 50.0682 50.6686 49.9863 50.8596C49.9045 51.0506 49.9045 51.0415 49.859 51.1416C49.8135 51.2417 49.7771 51.3235 49.7316 51.4236C49.5768 51.7824 49.4639 52.1578 49.3951 52.5425C49.3116 52.9097 49.3284 53.2925 49.4437 53.651C49.5589 54.0094 49.7683 54.3303 50.05 54.5801Z" fill="#074158"/>
<path d="M55.8355 44.6466C55.6668 44.3891 55.4815 44.143 55.2806 43.9097C55.2806 43.9097 55.1351 44.219 54.9531 44.7284C54.9531 44.8467 54.8622 44.9922 54.8167 45.1378C54.7712 45.2833 54.6984 45.4289 54.6438 45.5926C54.5189 45.9322 54.4127 46.2784 54.3255 46.6296L54.2618 46.9116C54.2618 47.0026 54.2072 47.0936 54.189 47.1845C54.1356 47.3693 54.0961 47.5579 54.0708 47.7485C54.0208 48.1229 54.0208 48.5022 54.0708 48.8765C54.0821 49.2467 54.1874 49.6079 54.3767 49.9262C54.5661 50.2444 54.8333 50.5093 55.1533 50.6959C55.3768 50.5919 55.59 50.4671 55.79 50.3229C55.9738 50.1977 56.1365 50.0442 56.2721 49.8681C56.5345 49.5503 56.735 49.1862 56.8634 48.7947C56.8991 48.7033 56.9265 48.6089 56.9453 48.5126C56.9453 48.4126 56.9453 48.3125 56.9453 48.2125C56.9635 48.0158 56.9635 47.8178 56.9453 47.6212C56.9069 46.8618 56.6953 46.1212 56.3267 45.4562C56.1796 45.1766 56.0156 44.9062 55.8355 44.6466Z" fill="#074158"/>
<path d="M59.7289 42.1996C59.6379 42.0358 59.5288 41.8721 59.4287 41.7265C59.3286 41.581 59.2013 41.4263 59.0921 41.2808C58.983 41.1352 58.6282 40.7714 58.4281 40.5712C58.2024 40.3529 57.9655 40.1465 57.7185 39.9527C57.7185 39.9527 57.6548 40.271 57.6003 40.7805C57.6003 41.0443 57.5366 41.3354 57.5093 41.6901C57.4905 42.0386 57.4905 42.3878 57.5093 42.7363C57.4776 43.0994 57.4776 43.4647 57.5093 43.8279C57.5263 44.0148 57.5567 44.2002 57.6003 44.3828C57.6003 44.5556 57.6912 44.7375 57.7367 44.9013C57.8447 45.2604 58.0337 45.5899 58.2892 45.8643C58.5447 46.1388 58.8599 46.3508 59.2104 46.4841C59.3968 46.3521 59.5704 46.2029 59.7289 46.0384C59.8721 45.8874 59.9917 45.7156 60.0837 45.5289C60.2582 45.1838 60.3575 44.8055 60.3748 44.4191C60.3929 44.2346 60.3929 44.0488 60.3748 43.8642C60.2765 43.2864 60.0664 42.7333 59.7562 42.2359L59.7289 42.1996Z" fill="#074158"/>
<path d="M60.5931 40.4712C60.7859 40.8035 61.0484 41.0901 61.3624 41.3115C61.6764 41.5329 62.0346 41.6838 62.4124 41.7538C62.5532 41.6 62.6782 41.4324 62.7854 41.2535C62.8903 41.0927 62.9643 40.9138 63.0037 40.7259C63.0811 40.3631 63.0811 39.988 63.0037 39.6252C62.9679 39.4431 62.9193 39.2637 62.8581 39.0885C62.7811 38.9103 62.693 38.7371 62.5943 38.57C62.3909 38.2448 62.1563 37.9401 61.8939 37.6603C61.6605 37.3626 61.4018 37.0856 61.1207 36.8325C60.8387 36.596 60.5658 36.3959 60.3293 36.223C59.8562 35.8955 59.5287 35.7136 59.5287 35.7136C59.5343 35.9935 59.5555 36.273 59.5924 36.5505C59.5924 36.6779 59.5924 36.8143 59.5924 36.9599C59.5924 37.1054 59.5924 37.2509 59.6379 37.4147C59.6379 37.7331 59.7562 38.0788 59.838 38.4335C59.9021 38.7896 59.9965 39.1396 60.12 39.4796C60.1793 39.6579 60.2523 39.8312 60.3383 39.9982C60.3383 40.08 60.4202 40.1619 60.4657 40.2438L60.5931 40.4712Z" fill="#074158"/>
<path d="M64.3955 35.4225C64.3905 35.063 64.3164 34.7079 64.1772 34.3764C63.8451 33.6645 63.3495 33.0411 62.7308 32.5571C62.4415 32.3145 62.1377 32.0897 61.8211 31.8839C61.5209 31.6838 61.2116 31.5109 60.966 31.3745C60.4475 31.1016 60.0564 30.956 60.0564 30.956C60.0564 30.956 60.1291 31.2835 60.2747 31.7747C60.4254 32.3975 60.6293 33.0062 60.8842 33.5941C61.019 33.9366 61.1802 34.2681 61.3663 34.5856C61.5566 34.9103 61.7791 35.2151 62.0303 35.4953C62.2771 35.7856 62.5799 36.023 62.9207 36.1934C63.2615 36.3638 63.6331 36.4636 64.0134 36.4868C64.2317 36.1716 64.3634 35.8046 64.3955 35.4225Z" fill="#074158"/>
<path d="M65.4143 30.6104C65.3563 30.2572 65.2262 29.9197 65.0322 29.6188C64.8325 29.2862 64.591 28.9805 64.3136 28.7092C64.033 28.4342 63.7285 28.1846 63.4039 27.9632C62.8286 27.563 62.2199 27.213 61.5846 26.9171C61.2889 26.7779 60.9851 26.6564 60.6749 26.5532C60.6749 26.5532 60.7841 26.8716 60.966 27.3719C61.0661 27.6176 61.1844 27.8995 61.3299 28.2088C61.4027 28.3635 61.4754 28.5181 61.5664 28.6819L61.8211 29.1549C62.01 29.4717 62.2196 29.7756 62.4488 30.0646C62.5656 30.2134 62.6901 30.3562 62.8218 30.4921C62.9453 30.6263 63.0759 30.7538 63.2129 30.8742C63.7846 31.3831 64.5313 31.6505 65.2961 31.6201C65.414 31.2974 65.4546 30.9516 65.4143 30.6104Z" fill="#074158"/>
<path d="M65.1869 24.5793C64.9594 24.2818 64.6967 24.013 64.4046 23.7788C64.259 23.6605 64.1044 23.5422 63.9406 23.4331C63.7761 23.3243 63.6061 23.2241 63.4312 23.1329C62.8262 22.7992 62.1931 22.5191 61.5391 22.296L60.9024 22.0959L60.6476 22.0413L60.7477 22.2323C60.8114 22.3597 60.9024 22.5416 61.0206 22.7599C61.1389 22.9782 61.2844 23.2329 61.4573 23.4968C61.6301 23.7606 61.8029 24.0698 62.0212 24.4064C62.2341 24.7077 62.4682 24.9935 62.7217 25.2615C62.9684 25.5407 63.2462 25.791 63.5495 26.0074C64.142 26.4644 64.889 26.6732 65.6326 26.5896C65.7303 26.2438 65.7407 25.8792 65.6629 25.5283C65.5851 25.1775 65.4215 24.8514 65.1869 24.5793Z" fill="#074158"/>
<path d="M64.7048 19.5488C64.603 19.407 64.4905 19.2731 64.3682 19.1485C64.1138 18.8877 63.8263 18.6614 63.5131 18.4754C63.1805 18.2802 62.8339 18.1099 62.4761 17.966C61.8507 17.7157 61.2015 17.5297 60.5385 17.4111C59.9927 17.311 59.6288 17.2837 59.6288 17.2837C59.6777 17.3353 59.7233 17.39 59.7653 17.4474C59.8471 17.5566 59.9745 17.7022 60.1109 17.8841C60.2474 18.066 60.4293 18.2843 60.6295 18.5118L60.9569 18.8665C61.0661 18.9848 61.1753 19.1121 61.3026 19.2395C61.7906 19.7413 62.3409 20.1785 62.94 20.5403C63.5591 20.923 64.297 21.0654 65.0141 20.9406C65.0645 20.6099 65.0301 20.2719 64.914 19.9581C64.8609 19.8138 64.7907 19.6764 64.7048 19.5488Z" fill="#074158"/>
<path d="M62.1304 14.2181C61.9837 14.1116 61.8286 14.0173 61.6665 13.9361C61.5027 13.8543 61.3208 13.7815 61.148 13.7087C60.7886 13.5805 60.4208 13.4771 60.0473 13.3994C59.7001 13.3168 59.3474 13.259 58.992 13.2266C58.6555 13.2266 58.3371 13.172 58.0824 13.1629C57.5548 13.1629 57.1727 13.1629 57.1727 13.1629C57.1727 13.1629 57.4001 13.3721 57.7822 13.6723C58.244 14.0608 58.7301 14.4193 59.2377 14.7457C59.8128 15.1699 60.4473 15.5071 61.1207 15.7464C61.7667 16.0092 62.4842 16.0381 63.1492 15.8282C63.1155 15.4994 63.0059 15.1828 62.8291 14.9034C62.6523 14.624 62.4132 14.3894 62.1304 14.2181Z" fill="#074158"/>
<path d="M58.801 9.73346C58.1073 9.45279 57.3735 9.28392 56.6269 9.23314C55.9794 9.17316 55.3277 9.17316 54.6802 9.23314C54.3966 9.25092 54.1142 9.28433 53.8342 9.3332C53.8342 9.3332 54.1071 9.51514 54.5438 9.76075C55.0778 10.0953 55.6306 10.399 56.1994 10.6704C56.5359 10.816 56.8634 10.9615 57.2 11.0798C57.5349 11.2097 57.8825 11.3042 58.237 11.3618C58.5897 11.4158 58.9486 11.4158 59.3013 11.3618C59.621 11.3328 59.931 11.2367 60.211 11.0798C59.9333 10.4652 59.4278 9.98252 58.801 9.73346Z" fill="#074158"/>
<path d="M52.688 6.47684C53.9252 7.09542 55.4716 7.57754 56.5541 6.92258C56.2845 6.32359 55.7916 5.85357 55.1805 5.61266C54.5163 5.32452 53.8097 5.14632 53.0883 5.08505C52.1812 4.988 51.2664 4.988 50.3593 5.08505C50.3593 5.08505 50.614 5.27608 51.0325 5.53988C51.5655 5.88441 52.1183 6.19728 52.688 6.47684Z" fill="#074158"/>
<path d="M66.2421 37.1327C67.0126 37.255 67.8003 37.0687 68.4344 36.6142C68.7952 36.377 69.12 36.089 69.3986 35.7591C69.6935 35.4272 69.964 35.0746 70.2083 34.7039C70.6069 34.0318 70.9448 33.3256 71.218 32.5934C71.331 32.2717 71.4252 31.9437 71.5 31.611C71.5 31.611 71.1361 31.7747 70.5903 32.0658C70.3174 32.2023 70.0172 32.3842 69.6807 32.5843C69.3441 32.7845 68.9893 33.0028 68.6345 33.2575C67.9501 33.7349 67.3374 34.3077 66.8152 34.9586L66.7424 35.0495C66.988 33.9125 67.1973 32.7572 67.3428 31.6019C67.9833 31.5633 68.5921 31.3101 69.0712 30.8833C69.2167 30.7559 69.3623 30.6104 69.4987 30.4648C69.6352 30.3193 69.7443 30.1464 69.8626 29.9827C70.088 29.6412 70.2857 29.2823 70.4539 28.9093C70.5448 28.7183 70.6176 28.5363 70.6904 28.3544C70.7631 28.1725 70.8177 27.9996 70.8723 27.8268C70.9815 27.4811 71.0724 27.1627 71.1361 26.9171C71.219 26.6188 71.2798 26.3147 71.318 26.0074C71.318 26.0074 70.9906 26.1894 70.4994 26.4896C69.8909 26.8616 69.313 27.2813 68.771 27.7449C68.4661 28.0028 68.1803 28.2825 67.9159 28.5818C67.8053 28.6997 67.702 28.8242 67.6066 28.9548C67.6612 27.9814 67.6794 27.0081 67.6066 26.0256C68.0667 25.8934 68.484 25.6424 68.8165 25.2979C69.0763 25.0226 69.3023 24.7172 69.4896 24.3882C69.672 24.0431 69.8271 23.6842 69.9535 23.3148C70.079 22.9622 70.1763 22.6003 70.2446 22.2323C70.3083 21.8775 70.3538 21.5501 70.3811 21.2681C70.4084 20.9861 70.3811 20.7496 70.4357 20.5858V20.2765L70.2174 20.4585L69.6897 20.8587C69.1552 21.2778 68.6506 21.7337 68.1797 22.2232C68.0523 22.3597 67.925 22.5052 67.8067 22.6508C67.6885 22.7963 67.5611 22.9419 67.4429 23.0965L67.361 23.2239C67.2366 22.2863 67.0573 21.3569 66.8243 20.4403C67.2564 20.2725 67.6296 19.9815 67.8977 19.6034C68.3153 18.9884 68.5718 18.2783 68.6436 17.5384C68.6436 17.3474 68.6436 17.1655 68.7073 16.9744C68.771 16.7834 68.7073 16.6106 68.7073 16.4286C68.7073 16.0739 68.7073 15.7373 68.6436 15.4553C68.6233 15.225 68.5838 14.9967 68.5254 14.773C68.5254 14.6002 68.4617 14.5092 68.4617 14.5092C68.4617 14.5092 68.2343 14.7457 67.9159 15.1369C67.498 15.6207 67.1121 16.1312 66.7606 16.6651C66.5708 16.9584 66.3977 17.2621 66.2421 17.5748C66.1784 17.7022 66.1238 17.8204 66.0784 17.9387C65.7281 16.9343 65.3149 15.9529 64.8412 15.0004C65.2997 14.7944 65.6613 14.4198 65.8509 13.9543C66.077 13.2814 66.1425 12.5648 66.042 11.8621C65.9327 11.1871 65.7528 10.5255 65.5053 9.88811C65.2869 9.36959 65.105 8.97844 65.105 8.97844C65.105 8.97844 64.9413 9.24224 64.7229 9.66069C64.6229 9.86082 64.5046 10.1064 64.3864 10.3793C64.2503 10.6753 64.1318 10.979 64.0316 11.289C63.9131 11.602 63.8218 11.9246 63.7587 12.2532C63.7286 12.4157 63.7073 12.5797 63.695 12.7445C63.695 12.799 63.695 12.8627 63.695 12.9173C63.0298 11.8722 62.2879 10.8779 61.4754 9.94268C61.7153 9.83038 61.9215 9.65695 62.0732 9.43981C62.2248 9.22266 62.3167 8.96943 62.3396 8.70554C62.3893 8.38604 62.3893 8.06078 62.3396 7.74129C62.2937 7.39411 62.202 7.05457 62.0667 6.73155C61.8086 6.123 61.4918 5.54109 61.1207 4.99408C60.8205 4.53925 60.6021 4.25725 60.6021 4.25725C60.5062 4.47626 60.4242 4.70109 60.3565 4.93041C60.1968 5.45039 60.0812 5.98292 60.0109 6.52233C59.906 7.14577 59.9339 7.78432 60.0927 8.39625C60.0875 8.43854 60.0875 8.48131 60.0927 8.5236C59.1831 7.53206 58.1006 6.54962 56.9635 5.52169C58.0915 4.88493 57.7822 3.55681 57.1545 2.34695C56.8449 1.80396 56.492 1.28681 56.0993 0.80051C55.7809 0.400255 55.5444 0.145547 55.5444 0.145547C55.3416 0.858751 55.2375 1.59639 55.2351 2.33785C55.2637 2.94215 55.4089 3.53522 55.6626 4.08442C55.7112 4.19815 55.769 4.30768 55.8355 4.4119C54.9456 3.71744 53.9923 3.10831 52.9882 2.59256C60.1746 8.61457 65.669 15.901 66.4877 24.2518C66.69 27.2949 66.5067 30.3514 65.9419 33.3485C65.4837 36.7939 64.4148 40.13 62.7854 43.2002C60.1276 48.0661 56.2337 52.1451 51.4964 55.0259C51.4964 55.0259 44.0917 58.7464 36.1502 58.8283H35.3043C27.4629 58.6646 19.9581 55.0259 19.9581 55.0259C15.2255 52.1422 11.3352 48.0637 8.67824 43.2002C7.04412 40.1068 5.97809 36.7454 5.53079 33.2757C4.96605 30.2786 4.78266 27.2221 4.98499 24.179C5.81278 15.8282 11.2981 8.54179 18.4936 2.51978C17.4882 3.03328 16.5347 3.64254 15.6463 4.33912C15.71 4.22996 15.7646 4.1208 15.8191 4.01164C16.0485 3.43253 16.1658 2.81516 16.1648 2.1923C16.1624 1.45084 16.0583 0.713204 15.8555 0C15.8555 0 15.619 0.254708 15.2915 0.654963C14.899 1.13938 14.549 1.65678 14.2454 2.2014C13.6086 3.41126 13.3357 4.73938 14.4364 5.37614C13.2994 6.40407 12.2532 7.38652 11.2981 8.37805C11.3033 8.33576 11.3033 8.29299 11.2981 8.2507C11.4555 7.63874 11.4864 7.00111 11.3891 6.37678C11.324 5.87908 11.2237 5.38662 11.0889 4.90312C10.9615 4.48467 10.8524 4.22996 10.8524 4.22996C10.8524 4.22996 10.6249 4.51196 10.3247 4.9668C9.96516 5.52105 9.6605 6.10905 9.41507 6.72246C9.28398 7.04688 9.19235 7.38589 9.14217 7.73219C9.097 8.05202 9.097 8.37661 9.14217 8.69644C9.18089 8.9826 9.29031 9.2546 9.46056 9.48785C9.6088 9.67348 9.79486 9.82542 10.0064 9.93359C9.19956 10.8734 8.45797 11.8672 7.78676 12.9082C7.78676 12.8536 7.78676 12.7899 7.78676 12.7354C7.77147 12.5704 7.74718 12.4064 7.71399 12.2441C7.65278 11.913 7.56455 11.5875 7.45019 11.2708C7.34103 10.9615 7.20458 10.6522 7.09542 10.3611C6.98626 10.07 6.8589 9.84262 6.74974 9.64249C6.54052 9.22405 6.37678 8.96024 6.37678 8.96024C6.37678 8.96024 6.19485 9.30592 5.97653 9.86991C5.72898 10.5073 5.54909 11.1689 5.43982 11.8439C5.33642 12.5459 5.39873 13.2625 5.62176 13.9361C5.8063 14.4032 6.16045 14.7833 6.61329 15.0004C6.13653 15.9601 5.71734 16.9473 5.35795 17.9569L5.19421 17.593C5.03892 17.2783 4.86265 16.9744 4.6666 16.6833C4.31789 16.1497 3.93503 15.6393 3.52042 15.1551C3.20203 14.7639 2.96552 14.5274 2.96552 14.5274C2.96552 14.5274 2.96552 14.6184 2.90184 14.7912C2.84715 15.0153 2.81064 15.2435 2.79268 15.4735C2.75212 15.7965 2.72783 16.1214 2.71991 16.4468V16.9926C2.71991 17.1836 2.71991 17.3656 2.78359 17.5566C2.86456 18.2719 3.12078 18.9562 3.52951 19.5488C3.79397 19.9266 4.16428 20.2178 4.59383 20.3857C4.36748 21.3094 4.19135 22.2447 4.06622 23.1875C4.04117 23.1415 4.01063 23.0987 3.97525 23.0601C3.86173 22.9054 3.74028 22.7566 3.61138 22.6144C3.49313 22.4688 3.36577 22.3233 3.23842 22.1868C2.7696 21.6952 2.26485 21.2391 1.72837 20.8223L1.20986 20.4585L1.00973 20.322C1.00374 20.4098 1.00374 20.498 1.00973 20.5858C1.00973 20.7496 1.00973 20.9861 1.06431 21.2681C1.11889 21.5501 1.12799 21.8775 1.19166 22.2323C1.26318 22.6005 1.36356 22.9624 1.49186 23.3148C1.6152 23.684 1.76728 24.0429 1.94669 24.3882C2.13409 24.7195 2.36339 25.0252 2.62894 25.2979C2.95833 25.6463 3.3767 25.8979 3.8388 26.0256C3.8388 27.0081 3.8388 27.9814 3.8388 28.9548C3.74027 28.8242 3.63395 28.6996 3.52042 28.5818C3.25909 28.2827 2.97635 28.003 2.67443 27.7449C2.12783 27.2831 1.54701 26.8635 0.936958 26.4896C0.49122 26.1348 0.172836 25.9165 0.172836 25.9165C0.210216 26.2232 0.267954 26.5271 0.345672 26.8261C0.418445 27.1081 0.500316 27.4265 0.609477 27.7358C0.664057 27.9086 0.727734 28.0815 0.791411 28.2634C0.855088 28.4454 0.946053 28.6273 1.02792 28.8183C1.20119 29.1905 1.40187 29.5493 1.6283 29.8917C1.73549 30.0914 1.85711 30.2829 1.99217 30.4648C2.12309 30.6185 2.26606 30.7615 2.41972 30.8924C2.89521 31.3192 3.50119 31.5725 4.13899 31.611C4.29364 32.7663 4.49376 33.9216 4.73937 35.0587L4.6757 34.9677C4.14859 34.3187 3.53667 33.7435 2.85636 33.2575C2.51069 33.0119 2.15592 32.7936 1.81934 32.5934C1.48276 32.3933 1.18257 32.2114 0.909669 32.0749C0.372964 31.7838 0 31.6201 0 31.6201C0 31.6201 0.0909666 32.0204 0.291094 32.6025C0.560401 33.3363 0.898483 34.0429 1.30083 34.713C1.54212 35.0857 1.81285 35.4386 2.11043 35.7682C2.38963 36.0975 2.71431 36.3855 3.07468 36.6233C3.70879 37.0778 4.49646 37.264 5.26698 37.1418L5.37614 37.5693C5.6476 38.5975 5.97867 39.6089 6.36768 40.5985L6.14936 40.3711C5.98562 40.2256 5.81278 40.0891 5.63085 39.9527C5.44892 39.8162 5.27608 39.6798 5.08505 39.5524C4.67512 39.2906 4.24984 39.0537 3.81151 38.8429C3.41126 38.6336 2.98371 38.4426 2.61984 38.2698C2.25598 38.0969 1.89211 37.9514 1.59192 37.8331C0.991539 37.5875 0.591283 37.4602 0.591283 37.4602C0.591283 37.4602 0.764122 37.8695 1.07341 38.4608C1.26432 38.8026 1.47386 39.1336 1.70108 39.4523C1.9567 39.8283 2.23306 40.1897 2.52888 40.5349C2.8611 40.8916 3.21665 41.2259 3.59319 41.5355C3.78422 41.6901 3.97525 41.8266 4.16628 41.9539L4.45738 42.1359L4.76666 42.2814C5.50108 42.6661 6.3579 42.7446 7.15 42.4997C7.71041 43.631 8.35825 44.7168 9.08759 45.7473C8.96933 45.6654 8.84198 45.5744 8.71463 45.5016C8.51164 45.3727 8.30214 45.2543 8.08696 45.1469C7.87773 45.0286 7.65941 44.9286 7.43199 44.8194C6.98626 44.6193 6.52233 44.4464 6.0493 44.2827L5.37614 44.1099L4.72118 43.8642C4.30273 43.7369 3.91158 43.6368 3.58409 43.555C2.91094 43.3821 2.4652 43.3002 2.4652 43.3002C2.4652 43.3002 2.7381 43.7005 3.20204 44.2736C3.48277 44.5985 3.7868 44.9025 4.1117 45.1833C4.45738 45.5198 4.83034 45.8564 5.2306 46.1839C5.65528 46.5006 6.10217 46.7863 6.56781 47.039C6.80432 47.1663 7.03174 47.2755 7.25916 47.3756C7.48398 47.4803 7.7186 47.5626 7.9596 47.6212C8.3679 47.7577 8.79923 47.8119 9.22862 47.7807C9.65801 47.7495 10.0769 47.6334 10.4612 47.4392C11.1798 48.3489 11.944 49.2586 12.7536 50.1683H12.6535L12.2896 50.0409L11.9349 49.9135C11.6983 49.8317 11.4436 49.7589 11.1889 49.6861C10.6886 49.5588 10.161 49.4496 9.64249 49.3677C9.12398 49.2859 8.64185 49.204 8.17792 49.1494C7.71399 49.0948 7.26825 49.0494 6.93168 49.013C6.21304 48.9493 5.73091 48.9311 5.73091 48.9311C5.73091 48.9311 6.12207 49.295 6.74065 49.8408L7.25006 50.241C7.43199 50.3866 7.65031 50.5139 7.86864 50.6595C8.30528 50.9415 8.77831 51.2235 9.26953 51.4873L9.64249 51.6783L10.0427 51.842C10.3096 51.9512 10.5734 52.0513 10.8342 52.1422C11.3376 52.31 11.8552 52.4318 12.3806 52.5061C13.1335 52.626 13.9049 52.4915 14.5729 52.124C15.237 52.7699 15.9283 53.3794 16.6469 53.9434L15.9829 53.8615C15.4371 53.8069 14.864 53.7978 14.3455 53.7796C13.405 53.7516 12.4637 53.7728 11.5255 53.8433L10.6158 53.9161H10.2793L10.3611 53.9707L10.6158 54.1162C10.8251 54.2436 11.1343 54.4255 11.5255 54.6256C11.9167 54.8258 12.3533 55.0532 12.8445 55.2806C13.3357 55.508 13.8997 55.699 14.4637 55.881L15.3097 56.1357L15.7373 56.2448L16.1739 56.3176C16.7206 56.4118 17.2749 56.4545 17.8295 56.445C18.4649 56.452 19.0915 56.2954 19.6488 55.9901C19.9127 56.1539 20.1856 56.2994 20.4676 56.445C20.5142 56.4642 20.5665 56.4642 20.6131 56.445C24.3975 58.4322 28.5131 59.7116 32.7572 60.2201C29.7189 60.7841 26.1348 61.4118 22.3415 61.9848L18.2389 65.478C18.2389 65.478 27.4629 62.4124 36.0229 60.4839C44.6284 62.4488 53.8524 65.5235 53.8524 65.5235L49.7589 62.0303C45.8564 61.439 42.1995 60.7932 39.0976 60.211C43.2516 59.7825 47.2751 58.5136 50.9233 56.4813C50.9591 56.4906 50.9966 56.4906 51.0324 56.4813C51.3053 56.3358 51.5782 56.1903 51.8511 56.0265C52.4074 56.3345 53.0347 56.4913 53.6705 56.4813C54.2251 56.4912 54.7795 56.4486 55.3261 56.354L55.7627 56.2812L56.1903 56.1721L57.0453 55.9174C57.6002 55.7354 58.1551 55.5262 58.6646 55.317C59.174 55.1077 59.5742 54.8621 59.9745 54.662C60.3747 54.4619 60.6658 54.28 60.8841 54.1526L61.1298 54.007L61.2116 53.9525H60.8841L59.9745 53.8797C59.0362 53.8093 58.095 53.7881 57.1545 53.816C56.6269 53.816 56.0538 53.816 55.508 53.8979L54.853 53.9798C55.5717 53.3976 56.263 52.7881 56.918 52.1604C57.5864 52.5266 58.3574 52.661 59.1103 52.5425C59.6361 52.4702 60.1539 52.3484 60.6567 52.1786C60.9205 52.0877 61.1934 51.9876 61.4572 51.8784L61.8484 51.7147L62.2305 51.5237C62.7217 51.2599 63.1947 50.9779 63.6313 50.6959C63.8497 50.5503 64.0589 50.423 64.2408 50.2774C64.4228 50.1319 64.5956 50.0045 64.7502 49.8772C65.3779 49.3677 65.76 48.9675 65.76 48.9675C65.76 48.9675 65.2869 48.9675 64.5592 49.0494C64.1953 49.0494 63.7769 49.1221 63.313 49.1858C62.849 49.2495 62.4033 49.3223 61.8484 49.4041C61.2935 49.486 60.8114 49.5952 60.302 49.7225L59.556 49.9499L59.2013 50.0773L58.8374 50.2046H58.7373C59.5469 49.295 60.3111 48.3853 61.0388 47.4756C61.423 47.6698 61.842 47.7859 62.2714 47.8171C62.7008 47.8483 63.1321 47.7941 63.5404 47.6576C63.778 47.5975 64.0095 47.5153 64.2317 47.4119C64.4682 47.3127 64.6991 47.2003 64.9231 47.0754C65.3887 46.8227 65.8356 46.537 66.2603 46.2203C66.6605 45.8928 67.0426 45.5562 67.3883 45.2197C67.7109 44.9365 68.0148 44.6326 68.298 44.31C68.7619 43.746 69.0348 43.3366 69.0348 43.3366C69.0348 43.3366 68.5891 43.4185 67.9159 43.5913C67.5793 43.6732 67.1881 43.7733 66.7697 43.9006L66.1147 44.1008L65.4234 44.3191C64.9504 44.4828 64.5137 44.6557 64.0316 44.8558C63.8133 44.9649 63.595 45.065 63.3857 45.1833C63.1676 45.2906 62.9551 45.409 62.749 45.538C62.6216 45.6108 62.5034 45.7018 62.3851 45.7836C63.1112 44.751 63.7588 43.6655 64.3227 42.5361C65.111 42.7793 65.9633 42.7042 66.6969 42.3269L67.0062 42.1723L67.2973 41.9903C67.4978 41.8642 67.6893 41.7244 67.8704 41.5719C68.2491 41.2647 68.6048 40.9303 68.9347 40.5712C69.244 40.2165 69.5169 39.8435 69.7716 39.4887C70.0263 39.134 70.2446 38.7883 70.3993 38.4972C70.7086 37.9059 70.8814 37.4966 70.8814 37.4966C70.8814 37.4966 70.4721 37.6239 69.8717 37.8695C69.5715 37.9878 69.2258 38.1333 68.8529 38.3062C68.4799 38.479 68.0614 38.67 67.6521 38.8793C67.2418 39.0897 66.8439 39.3235 66.4604 39.5797C66.2694 39.7071 66.0965 39.8435 65.9146 39.98C65.7327 40.1164 65.5598 40.2529 65.3961 40.3984C65.3159 40.4697 65.24 40.5456 65.1687 40.6258C65.5618 39.6377 65.8929 38.626 66.1602 37.5966C66.1602 37.4238 66.2057 37.2782 66.2421 37.1327Z" fill="#074158"/>
<path d="M47.1619 17.8703H42.8698V17.0673C42.8698 16.6849 42.5599 16.375 42.1776 16.375H29.7997C29.4174 16.375 29.1075 16.6849 29.1075 17.0673V17.8703H24.8431C24.1854 17.8703 23.6523 18.4034 23.6523 19.061V21.3871C23.6523 24.9038 26.3107 27.839 29.7167 28.2544C30.3242 29.5265 31.3743 30.5512 32.6707 31.1144C33.844 31.6241 34.5903 32.7958 34.5903 34.0751V35.371C34.5903 36.1815 33.9332 36.8386 33.1226 36.8386C32.7403 36.8386 32.4304 37.1485 32.4304 37.5309V37.8355C32.4304 38.646 31.7733 39.3031 30.9627 39.3031H30.2705C29.8881 39.3031 29.5782 39.613 29.5782 39.9954V42.8198C29.5782 43.2022 29.8881 43.5121 30.2705 43.5121H41.6791C42.0615 43.5121 42.3714 43.2022 42.3714 42.8198V39.9954C42.3714 39.613 42.0615 39.3031 41.6791 39.3031H40.9869C40.1763 39.3031 39.5192 38.646 39.5192 37.8355V37.5309C39.5192 37.1485 39.2093 36.8386 38.827 36.8386C38.0164 36.8386 37.3593 36.1815 37.3593 35.371V34.0628C37.3593 32.7839 38.1054 31.6124 39.2782 31.1024C40.5749 30.5385 41.6253 29.5267 42.2329 28.2544C45.6943 27.839 48.3526 24.9315 48.3526 21.3871V19.061C48.3526 18.4034 47.8195 17.8703 47.1619 17.8703ZM26.0338 21.3871V20.6425C26.0338 20.4267 26.2087 20.2517 26.4245 20.2517H28.7167C28.9325 20.2517 29.1075 20.4267 29.1075 20.6425V25.0966C29.1075 25.3897 28.7984 25.5751 28.536 25.4448C27.0624 24.7132 26.0338 23.1595 26.0338 21.3871ZM45.9712 21.3871C45.9712 23.1585 44.9438 24.6895 43.4716 25.4362C43.2091 25.5693 42.8975 25.3837 42.8975 25.0894V20.6425C42.8975 20.4267 43.0725 20.2517 43.2883 20.2517H45.5804C45.7963 20.2517 45.9712 20.4267 45.9712 20.6425V21.3871Z" fill="#074158"/>
</svg>
