<svg width="70" height="70" viewBox="0 0 70 70" fill="none" xmlns="http://www.w3.org/2000/svg">
<rect width="70" height="70" rx="35" fill="#F2F2F2"/>
<path d="M21.4171 33.0664C20.8832 32.5324 20.8832 31.6667 21.4171 31.1328L29.4219 23.128C29.9559 22.5942 30.8215 22.5941 31.3554 23.128L36.3886 28.1612L44.3154 20.2344H40.8034C40.0483 20.2344 39.4362 19.6223 39.4362 18.8672C39.4362 18.1121 40.0483 17.5 40.8034 17.5H47.6154C48.3827 17.4996 48.9833 18.1269 48.9833 18.8672V25.6799C48.9833 26.435 48.3712 27.0471 47.6161 27.0471C46.861 27.0471 46.2489 26.435 46.2489 25.6799V22.1679L37.3553 31.0615C36.8214 31.5954 35.9557 31.5954 35.4218 31.0615L30.3887 26.0283L23.3506 33.0664C22.8167 33.6003 21.9509 33.6002 21.4171 33.0664ZM27.2678 43.0664V51.1328C27.2678 51.8879 26.6557 52.5 25.9006 52.5H18.8672C18.1121 52.5 17.5 51.8879 17.5 51.1328V43.0664C17.5 42.3113 18.1121 41.6992 18.8672 41.6992H25.9006C26.6557 41.6992 27.2678 42.3113 27.2678 43.0664ZM24.5334 44.4336H20.2344V49.7656H24.5334V44.4336ZM39.8839 37.866V51.1328C39.8839 51.8879 39.2718 52.5 38.5167 52.5H31.4833C30.7282 52.5 30.1161 51.8879 30.1161 51.1328V37.866C30.1161 37.1109 30.7282 36.4988 31.4833 36.4988H38.5167C39.2718 36.4988 39.8839 37.1109 39.8839 37.866ZM37.1495 39.2332H32.8504V49.7656H37.1495V39.2332ZM52.5 32.6657V51.1328C52.5 51.8879 51.8879 52.5 51.1328 52.5H44.0994C43.3443 52.5 42.7322 51.8879 42.7322 51.1328V32.6657C42.7322 31.9106 43.3443 31.2985 44.0994 31.2985H51.1328C51.8879 31.2985 52.5 31.9106 52.5 32.6657ZM49.7656 34.0329H45.4666V49.7656H49.7656V34.0329Z" fill="#FF5F1A"/>
</svg>
