<svg width="104" height="104" viewBox="0 0 104 104" fill="none" xmlns="http://www.w3.org/2000/svg">
<rect width="104" height="104" rx="52" fill="white"/>
<path d="M31.8197 49.1272C31.0264 48.3339 31.0264 47.0477 31.8197 46.2545L43.7126 34.3616C44.5059 33.5685 45.792 33.5683 46.5852 34.3616L54.063 41.8395L65.84 30.0625H60.6221C59.5003 30.0625 58.5909 29.1531 58.5909 28.0313C58.5909 26.9094 59.5003 26 60.6221 26H70.7429C71.8829 25.9994 72.7751 26.9314 72.7751 28.0313V38.153C72.7751 39.2748 71.8657 40.1842 70.7439 40.1842C69.622 40.1842 68.7126 39.2748 68.7126 38.153V32.9352L55.4993 46.1485C54.706 46.9418 53.4199 46.9418 52.6267 46.1485L45.1489 38.6706L34.6923 49.1272C33.8991 49.9205 32.6128 49.9203 31.8197 49.1272ZM40.5122 63.9844V75.9688C40.5122 77.0906 39.6028 78 38.4809 78H28.0312C26.9094 78 26 77.0906 26 75.9688V63.9844C26 62.8625 26.9094 61.9531 28.0312 61.9531H38.4809C39.6028 61.9531 40.5122 62.8625 40.5122 63.9844ZM36.4497 66.0156H30.0625V73.9375H36.4497V66.0156ZM59.256 56.2581V75.9688C59.256 77.0906 58.3466 78 57.2248 78H46.7752C45.6534 78 44.744 77.0906 44.744 75.9688V56.2581C44.744 55.1362 45.6534 54.2269 46.7752 54.2269H57.2249C58.3466 54.2269 59.256 55.1362 59.256 56.2581ZM55.1935 58.2894H48.8064V73.9375H55.1935V58.2894ZM78 48.5319V75.9688C78 77.0906 77.0906 78 75.9688 78H65.5191C64.3972 78 63.4878 77.0906 63.4878 75.9688V48.5319C63.4878 47.4101 64.3972 46.5007 65.5191 46.5007H75.9688C77.0906 46.5007 78 47.4101 78 48.5319ZM73.9375 50.5632H67.5503V73.9375H73.9375V50.5632Z" fill="#FF5F1A"/>
</svg>
