<svg width="70" height="70" viewBox="0 0 70 70" fill="none" xmlns="http://www.w3.org/2000/svg">
<rect width="70" height="70" rx="35" fill="#F2F2F2"/>
<path d="M50.9792 41.606L52.3849 40.2002C53.4254 39.1597 53.9986 37.7761 53.9986 36.3045C53.9986 34.8328 53.4254 33.4493 52.3849 32.4087L47.4951 27.5189L50.895 24.119L45.8796 19.1035L42.4796 22.5034L37.5898 17.6136C36.5492 16.5731 35.1656 16 33.694 16C32.2225 16 30.8388 16.5731 29.7983 17.6137L28.3926 19.0194L37.1781 27.805L16 48.9831L21.0155 53.9986L42.1936 32.8204L50.9792 41.606ZM39.552 27.0136L38.9216 26.3832L41.0578 24.2471L41.6882 24.8775L45.121 28.3103L45.7515 28.9407L43.6153 31.0769L42.9849 30.4465L39.552 27.0136ZM51.7602 36.3045C51.7602 37.0943 51.4822 37.8414 50.9724 38.434L45.198 32.6596L47.3341 30.5234L50.8021 33.9914C51.42 34.6093 51.7602 35.4308 51.7602 36.3045ZM47.7296 24.119L45.9124 25.9362L44.0623 24.0861L45.8796 22.2689L47.7296 24.119ZM33.694 18.2383C34.5678 18.2383 35.3893 18.5786 36.0071 19.1964L39.4751 22.6644L37.3389 24.8005L31.5645 19.0261C32.1572 18.5163 32.9042 18.2383 33.694 18.2383ZM19.1653 48.9831L38.7607 29.3877L40.6108 31.2378L21.0154 50.8332L19.1653 48.9831Z" fill="#FF5F1A"/>
<path d="M52.2966 47.5736L47.8193 42.9124L40.6063 40.2129L33.3391 44.9152L32.004 51.9617H30.4297V54.2H54.0005V51.9617H52.2966V47.5736ZM35.3598 46.2737L39.7013 43.4646V48.0762H41.9395V43.1019L46.5578 44.8304L50.0583 48.4746V51.9617H34.2821L35.3598 46.2737Z" fill="#FF5F1A"/>
<path d="M44.2344 47.6245H46.4726V49.8805H44.2344V47.6245Z" fill="#FF5F1A"/>
</svg>
