<svg width="70" height="70" viewBox="0 0 70 70" fill="none" xmlns="http://www.w3.org/2000/svg">
<rect width="70" height="70" rx="35" fill="#FF5F1A"/>
<path d="M48.75 40.1345H45V36.2748C45 35.638 44.5425 35.1336 43.9538 35.0307C41.1963 27.2342 33.79 17.8539 33.4675 17.4487C32.9925 16.8504 32.0075 16.8504 31.5325 17.4487C31.0612 18.0405 20 32.0485 20 40.1345C20 47.2285 25.6075 53 32.5 53C34.2525 53 35.9562 52.6076 37.535 51.891C37.6225 52.5137 38.1212 53 38.75 53H43.75C44.44 53 45 52.4249 45 51.7134V47.8538H48.75C49.44 47.8538 50 47.2787 50 46.5672V41.421C50 40.7096 49.44 40.1345 48.75 40.1345ZM37.5 49.0181C35.9825 49.9251 34.2738 50.4269 32.5 50.4269C26.9863 50.4269 22.5 45.8095 22.5 40.1345C22.5 34.2472 29.82 23.9252 32.5 20.3434C34.4938 23.0079 39.05 29.4085 41.2637 34.9883H38.75C38.06 34.9883 37.5 35.5633 37.5 36.2748V40.1345H33.75C33.06 40.1345 32.5 40.7096 32.5 41.421V46.5672C32.5 47.2787 33.06 47.8538 33.75 47.8538H37.5V49.0181ZM47.5 45.2807H43.75C43.06 45.2807 42.5 45.8558 42.5 46.5672V50.4269H40V46.5672C40 45.8558 39.44 45.2807 38.75 45.2807H35V42.7076H38.75C39.44 42.7076 40 42.1325 40 41.421V37.5614H42.5V41.421C42.5 42.1325 43.06 42.7076 43.75 42.7076H47.5V45.2807Z" fill="#F2F2F2"/>
</svg>
