<svg width="70" height="70" viewBox="0 0 70 70" fill="none" xmlns="http://www.w3.org/2000/svg">
<rect width="70" height="70" rx="35" fill="#FF5F1A"/>
<path d="M47.4899 44.4663C47.4385 43.8934 47.1875 43.3567 46.7808 42.95C46.3741 42.5433 45.8374 42.2923 45.2645 42.2409L38.3672 41.6191V39.9827C39.178 39.5772 39.8859 38.9924 40.4372 38.2727H41.6399C42.5079 38.2727 43.3403 37.9279 43.9541 37.3142C44.5678 36.7004 44.9126 35.868 44.9126 35V30.9091C45.375 30.8152 45.7907 30.5643 46.0893 30.199C46.3879 29.8337 46.5511 29.3764 46.5511 28.9046C46.5511 28.4327 46.3879 27.9754 46.0893 27.6101C45.7907 27.2448 45.375 26.9939 44.9126 26.9C44.7609 25.0037 44.0615 23.1923 42.8995 21.686C41.7375 20.1798 40.1629 19.0435 38.3672 18.4155V17.9164C38.3812 17.8022 38.3709 17.6863 38.3371 17.5764C38.3032 17.4664 38.2466 17.3648 38.1708 17.2782C38.0933 17.1899 37.9976 17.1193 37.8903 17.0713C37.783 17.0233 37.6666 16.999 37.549 17H32.6399C32.5238 17.0002 32.409 17.0251 32.3032 17.073C32.1974 17.121 32.103 17.1909 32.0263 17.2782C31.9505 17.3648 31.8939 17.4664 31.8601 17.5764C31.8262 17.6863 31.816 17.8022 31.8299 17.9164L31.8872 18.3746C30.0915 19.0026 28.5169 20.1389 27.3549 21.6451C26.1929 23.1514 25.4935 24.9628 25.3418 26.8591C24.8528 26.9203 24.4023 27.156 24.0732 27.5228C23.7441 27.8896 23.5585 28.3629 23.5505 28.8557C23.5425 29.3484 23.7128 29.8275 24.0298 30.2048C24.3469 30.582 24.7895 30.8321 25.2763 30.9091V35C25.2763 35.868 25.6211 36.7004 26.2349 37.3142C26.8486 37.9279 27.6811 38.2727 28.549 38.2727H29.7518C30.2984 39.0073 31.0067 39.6064 31.8218 40.0236V41.66L24.9245 42.2818C24.3516 42.3332 23.8149 42.5842 23.4082 42.9909C23.0014 43.3976 22.7504 43.9343 22.6991 44.5072L22.0036 52.1081C21.9935 52.2157 22.0048 52.3241 22.0368 52.4273C22.0688 52.5304 22.1209 52.6262 22.1901 52.7091C22.2593 52.792 22.3443 52.8604 22.44 52.9103C22.5358 52.9603 22.6405 52.9907 22.7481 53H22.8218C23.0266 53.0008 23.2243 52.9248 23.3758 52.7869C23.5273 52.6491 23.6215 52.4594 23.64 52.2554L24.3272 44.6136C24.3457 44.4232 24.4302 44.2452 24.5663 44.1107C24.7023 43.9762 24.8812 43.8936 25.0718 43.8772L26.0945 43.7791V52.1818C26.0945 52.3988 26.1807 52.6069 26.3341 52.7603C26.4876 52.9138 26.6957 53 26.9127 53C27.1297 53 27.3378 52.9138 27.4912 52.7603C27.6447 52.6069 27.7309 52.3988 27.7309 52.1818V43.6318L28.549 43.5582V48.0909C28.549 48.3079 28.6352 48.516 28.7887 48.6694C28.9421 48.8229 29.1502 48.9091 29.3672 48.9091H40.8217C41.0387 48.9091 41.2468 48.8229 41.4003 48.6694C41.5537 48.516 41.6399 48.3079 41.6399 48.0909V43.5582L42.4581 43.6318V52.1818C42.4581 52.3988 42.5443 52.6069 42.6977 52.7603C42.8512 52.9138 43.0593 53 43.2763 53C43.4933 53 43.7014 52.9138 43.8548 52.7603C44.0083 52.6069 44.0945 52.3988 44.0945 52.1818V43.7791L45.1172 43.8772C45.3078 43.8936 45.4867 43.9762 45.6227 44.1107C45.7587 44.2452 45.8433 44.4232 45.8617 44.6136L46.549 52.2554C46.5674 52.4594 46.6617 52.6491 46.8132 52.7869C46.9647 52.9248 47.1624 53.0008 47.3672 53H47.4408C47.5484 52.9907 47.6531 52.9603 47.7489 52.9103C47.8447 52.8604 47.9296 52.792 47.9989 52.7091C48.0681 52.6262 48.1202 52.5304 48.1522 52.4273C48.1842 52.3241 48.1955 52.2157 48.1854 52.1081L47.4899 44.4663ZM41.6399 36.6364H41.3781C42.0922 34.8113 42.4585 32.8688 42.4581 30.9091H43.2763V35C43.2763 35.434 43.1039 35.8502 42.797 36.1571C42.4901 36.464 42.0739 36.6364 41.6399 36.6364ZM36.6245 18.6364L36.0108 23.5455H34.1781L33.5645 18.6364H36.6245ZM32.0918 20.0355L32.6399 24.4618C32.6641 24.6614 32.7608 24.8451 32.9117 24.9779C33.0626 25.1107 33.2571 25.1833 33.4581 25.1818H36.7308C36.9318 25.1833 37.1264 25.1107 37.2773 24.9779C37.4282 24.8451 37.5249 24.6614 37.549 24.4618L38.1054 20.0355C39.5077 20.5812 40.7323 21.5031 41.6445 22.6998C42.5568 23.8964 43.1214 25.3215 43.2763 26.8182H26.9536C27.1056 25.3251 27.6653 23.9026 28.5716 22.7063C29.4778 21.51 30.6956 20.5861 32.0918 20.0355ZM25.6854 28.4546H44.5036C44.6121 28.4546 44.7161 28.4977 44.7928 28.5744C44.8695 28.6511 44.9126 28.7551 44.9126 28.8636C44.9126 28.9721 44.8695 29.0762 44.7928 29.1529C44.7161 29.2296 44.6121 29.2727 44.5036 29.2727H25.6854C25.5769 29.2727 25.4729 29.2296 25.3961 29.1529C25.3194 29.0762 25.2763 28.9721 25.2763 28.8636C25.2763 28.7551 25.3194 28.6511 25.3961 28.5744C25.4729 28.4977 25.5769 28.4546 25.6854 28.4546ZM28.549 36.6364C28.115 36.6364 27.6988 36.464 27.392 36.1571C27.0851 35.8502 26.9127 35.434 26.9127 35V30.9091H27.7309C27.7252 32.8678 28.086 34.8103 28.7945 36.6364H28.549ZM29.3672 30.9091H40.8217C40.3717 37.3482 38.7681 38.8782 35.0945 39.0909C31.4372 38.8782 29.8336 37.3482 29.3672 30.9091ZM35.0945 40.7273C35.6436 40.7273 36.1915 40.6753 36.7308 40.5718V42.3636C36.7308 42.7976 36.5584 43.2138 36.2516 43.5207C35.9447 43.8276 35.5285 44 35.0945 44C34.6605 44 34.2443 43.8276 33.9374 43.5207C33.6305 43.2138 33.4581 42.7976 33.4581 42.3636V40.5718C33.9974 40.6753 34.5453 40.7273 35.0945 40.7273ZM40.0036 47.2727H30.1854V43.4109L31.9609 43.2473C32.1637 43.9206 32.578 44.5106 33.1424 44.9301C33.7068 45.3495 34.3913 45.576 35.0945 45.576C35.7977 45.576 36.4822 45.3495 37.0466 44.9301C37.611 44.5106 38.0253 43.9206 38.2281 43.2473L40.0036 43.4109V47.2727Z" fill="#F2F2F2"/>
<path d="M40.8235 49.7271H29.369C29.152 49.7271 28.9439 49.8133 28.7904 49.9667C28.637 50.1201 28.5508 50.3282 28.5508 50.5452V52.1816C28.5508 52.3986 28.637 52.6067 28.7904 52.7601C28.9439 52.9136 29.152 52.9998 29.369 52.9998C29.586 52.9998 29.7941 52.9136 29.9475 52.7601C30.1009 52.6067 30.1871 52.3986 30.1871 52.1816V51.3634H34.278V52.1816C34.278 52.3986 34.3642 52.6067 34.5177 52.7601C34.6711 52.9136 34.8792 52.9998 35.0962 52.9998C35.3132 52.9998 35.5213 52.9136 35.6748 52.7601C35.8282 52.6067 35.9144 52.3986 35.9144 52.1816V51.3634H40.0053V52.1816C40.0053 52.3986 40.0915 52.6067 40.2449 52.7601C40.3984 52.9136 40.6065 52.9998 40.8235 52.9998C41.0405 52.9998 41.2486 52.9136 41.402 52.7601C41.5555 52.6067 41.6417 52.3986 41.6417 52.1816V50.5452C41.6417 50.3282 41.5555 50.1201 41.402 49.9667C41.2486 49.8133 41.0405 49.7271 40.8235 49.7271Z" fill="#F2F2F2"/>
<path d="M35.0945 37.2173C35.4931 37.2179 35.8878 37.1394 36.2558 36.9863C36.6237 36.8332 36.9577 36.6086 37.2382 36.3255C37.3722 36.169 37.4422 35.9676 37.4343 35.7617C37.4263 35.5558 37.341 35.3604 37.1952 35.2147C37.0495 35.069 36.8542 34.9837 36.6483 34.9757C36.4424 34.9678 36.241 35.0378 36.0845 35.1718C35.8162 35.4232 35.4622 35.5631 35.0945 35.5631C34.7268 35.5631 34.3729 35.4232 34.1045 35.1718C33.948 35.0378 33.7467 34.9678 33.5408 34.9757C33.3348 34.9837 33.1395 35.069 32.9938 35.2147C32.8481 35.3604 32.7627 35.5558 32.7548 35.7617C32.7468 35.9676 32.8168 36.169 32.9509 36.3255C33.2314 36.6086 33.5653 36.8332 33.9333 36.9863C34.3013 37.1394 34.696 37.2179 35.0945 37.2173Z" fill="#F2F2F2"/>
</svg>
